<svg style="display: none" aria-hidden="true" xmlns="http://www.w3.org/2000/svg">
<defs>
  <symbol id="undo" viewBox="0 0 16 16"><path d="M11.904 16c1.777-3.219 2.076-8.13-4.904-7.966v3.966l-6-6 6-6v3.881c8.359-0.218 9.29 7.378 4.904 12.119z"/></symbol>
  <symbol id="settings" viewBox="0 0 16 16"><path d="M14.59 9.535c-0.839-1.454-0.335-3.317 1.127-4.164l-1.572-2.723c-0.449 0.263-0.972 0.414-1.529 0.414-1.68 0-3.042-1.371-3.042-3.062h-3.145c0.004 0.522-0.126 1.051-0.406 1.535-0.839 1.454-2.706 1.948-4.17 1.106l-1.572 2.723c0.453 0.257 0.845 0.634 1.123 1.117 0.838 1.452 0.336 3.311-1.12 4.16l1.572 2.723c0.448-0.261 0.967-0.41 1.522-0.41 1.675 0 3.033 1.362 3.042 3.046h3.145c-0.001-0.517 0.129-1.040 0.406-1.519 0.838-1.452 2.7-1.947 4.163-1.11l1.572-2.723c-0.45-0.257-0.839-0.633-1.116-1.113zM8 11.24c-1.789 0-3.24-1.45-3.24-3.24s1.45-3.24 3.24-3.24c1.789 0 3.24 1.45 3.24 3.24s-1.45 3.24-3.24 3.24z"/></symbol>
  <symbol id="copy" viewBox="0 0 24 24"><title>copy</title><path d="M19 21V7H8v14h11zm0-16c1 0 2 1 2 2v14c0 1-1 2-2 2H8c-1 0-2-1-2-2V7c0-1 1-2 2-2h11zm-3-4v2H4v14H2V3c0-1 1-2 2-2h12z"/></symbol>
</defs>
</svg>
